<svg xmlns="http://www.w3.org/2000/svg" width="920" height="520" viewBox="0 0 920 520"><rect width="100%" height="100%" fill="#ffffff"/><text x="28" y="30" font-family="Arial" font-size="18" font-weight="700">Follow-up duration distribution (days)</text><text x="28" y="50" font-family="Arial" font-size="11" fill="#555">Aggregate synthetic data only — no row-level patient information</text><line x1="65" y1="395" x2="895" y2="395" stroke="#444"/><line x1="65" y1="75" x2="65" y2="395" stroke="#444"/><rect x="79.8" y="374.9" width="62.7" height="20.1" fill="#1f77b4"/><text x="111.1" y="369.9" text-anchor="middle" font-family="Arial" font-size="10">111</text><text x="111.1" y="410" transform="rotate(45 111.1 410)" font-family="Arial" font-size="9">&lt;180</text><rect x="172.0" y="343.9" width="62.7" height="51.1" fill="#ff7f0e"/><text x="203.3" y="338.9" text-anchor="middle" font-family="Arial" font-size="10">283</text><text x="203.3" y="410" transform="rotate(45 203.3 410)" font-family="Arial" font-size="9">180-364</text><rect x="264.2" y="110.2" width="62.7" height="284.8" fill="#2ca02c"/><text x="295.6" y="105.2" text-anchor="middle" font-family="Arial" font-size="10">1576</text><text x="295.6" y="410" transform="rotate(45 295.6 410)" font-family="Arial" font-size="9">365-729</text><rect x="356.4" y="75.0" width="62.7" height="320.0" fill="#d62728"/><text x="387.8" y="70.0" text-anchor="middle" font-family="Arial" font-size="10">1771</text><text x="387.8" y="410" transform="rotate(45 387.8 410)" font-family="Arial" font-size="9">730-1094</text><rect x="448.6" y="86.6" width="62.7" height="308.4" fill="#9467bd"/><text x="480.0" y="81.6" text-anchor="middle" font-family="Arial" font-size="10">1707</text><text x="480.0" y="410" transform="rotate(45 480.0 410)" font-family="Arial" font-size="9">1095-1459</text><rect x="540.9" y="106.8" width="62.7" height="288.2" fill="#17becf"/><text x="572.2" y="101.8" text-anchor="middle" font-family="Arial" font-size="10">1595</text><text x="572.2" y="410" transform="rotate(45 572.2 410)" font-family="Arial" font-size="9">1460-1824</text><rect x="633.1" y="121.6" width="62.7" height="273.4" fill="#8c564b"/><text x="664.4" y="116.6" text-anchor="middle" font-family="Arial" font-size="10">1513</text><text x="664.4" y="410" transform="rotate(45 664.4 410)" font-family="Arial" font-size="9">1825-2199</text><rect x="725.3" y="134.1" width="62.7" height="260.9" fill="#1f77b4"/><text x="756.7" y="129.1" text-anchor="middle" font-family="Arial" font-size="10">1444</text><text x="756.7" y="410" transform="rotate(45 756.7 410)" font-family="Arial" font-size="9">2200-2599</text><rect x="817.5" y="395.0" width="62.7" height="0.0" fill="#ff7f0e"/><text x="848.9" y="390.0" text-anchor="middle" font-family="Arial" font-size="10">0</text><text x="848.9" y="410" transform="rotate(45 848.9 410)" font-family="Arial" font-size="9">2600+</text></svg>