<svg xmlns="http://www.w3.org/2000/svg" width="920" height="420" viewBox="0 0 920 420"><rect width="100%" height="100%" fill="#ffffff"/><text x="28" y="30" font-family="Arial" font-size="18" font-weight="700">Treatment regimen distribution</text><text x="28" y="50" font-family="Arial" font-size="11" fill="#555">Aggregate synthetic data only — no row-level patient information</text><line x1="210" y1="365" x2="885" y2="365" stroke="#444"/><line x1="210" y1="75" x2="210" y2="365" stroke="#444"/><text x="202" y="106.4" text-anchor="end" font-family="Arial" font-size="10">adt_arpi_doublet</text><rect x="210" y="82.7" width="675.0" height="32.9" fill="#1f77b4"/><text x="890.0" y="106.4" font-family="Arial" font-size="10">1152</text><text x="202" y="154.7" text-anchor="end" font-family="Arial" font-size="10">adt_monotherapy</text><rect x="210" y="131.1" width="248.4" height="32.9" fill="#ff7f0e"/><text x="463.4" y="154.7" font-family="Arial" font-size="10">424</text><text x="202" y="203.1" text-anchor="end" font-family="Arial" font-size="10">adt_arpi_chemotherapy_triplet</text><rect x="210" y="179.4" width="150.6" height="32.9" fill="#2ca02c"/><text x="365.6" y="203.1" font-family="Arial" font-size="10">257</text><text x="202" y="251.4" text-anchor="end" font-family="Arial" font-size="10">localized_radiotherapy</text><rect x="210" y="227.7" width="131.8" height="32.9" fill="#d62728"/><text x="346.8" y="251.4" font-family="Arial" font-size="10">225</text><text x="202" y="299.7" text-anchor="end" font-family="Arial" font-size="10">adt_chemotherapy_doublet</text><rect x="210" y="276.1" width="114.3" height="32.9" fill="#9467bd"/><text x="329.3" y="299.7" font-family="Arial" font-size="10">195</text><text x="202" y="348.1" text-anchor="end" font-family="Arial" font-size="10">localized_prostatectomy</text><rect x="210" y="324.4" width="68.0" height="32.9" fill="#17becf"/><text x="283.0" y="348.1" font-family="Arial" font-size="10">116</text></svg>